<svg width="800" height="144" viewBox="0 0 400 72" fill="none" xmlns="http://www.w3.org/2000/svg" role="img" aria-label="Kinetik">
  <title>Kinetik</title>
  <g fill="#0A0A0A">
    <rect x="0" y="12" width="7" height="48"/>
    <polygon points="10,36 31,12 41,12 20,36 42,60 32,60"/>
    <rect x="62" y="12" width="32" height="7"/>
    <rect x="74.5" y="19" width="7" height="34"/>
    <rect x="62" y="53" width="32" height="7"/>
    <rect x="116" y="12" width="7" height="48"/>
    <polygon points="123,12 154,47 154,60 123,25"/>
    <rect x="154" y="12" width="7" height="48"/>
    <rect x="185" y="12" width="7" height="48"/>
    <rect x="192" y="12" width="36" height="7"/>
    <rect x="192" y="32.5" width="30" height="7"/>
    <rect x="192" y="53" width="36" height="7"/>
    <rect x="251" y="12" width="44" height="7"/>
    <rect x="269.5" y="19" width="7" height="41"/>
    <rect x="318" y="12" width="7" height="48"/>
    <rect x="345" y="12" width="7" height="48"/>
    <polygon points="355,36 376,12 386,12 365,36 387,60 377,60"/>
  </g>
  <rect x="383" y="53" width="6" height="7" fill="#CCFF00"/>
</svg>
